<svg xmlns="http://www.w3.org/2000/svg" width="auto" height="auto" viewBox="264.11 236.5 495.507 291"><path d="M280.199 299.764h19.997c.207 5.079 3.211 9.638 11.708 9.638 6.421.102 9.74-2.694 9.74-7.567 0-3.622-2.59-5.487-10.464-7.146-18.028-3.834-24.556-9.638-24.556-21.967 0-13.883 10.878-24.553 29.737-24.553 17.508 0 28.182 7.253 28.08 23.103h-19.379c-.412-5.595-3.727-7.976-9.322-7.976-5.803 0-8.603 2.692-8.603 6.732 0 3.422 2.283 4.977 10.464 6.737 16.682 3.625 24.867 9.22 24.867 21.964 0 15.125-10.879 25.697-31.083 25.798-20.099 0-31.291-9.321-31.186-24.763m68.695-.003c-.102-18.44 12.847-32.011 31.292-32.011 14.709 0 27.559 8.078 27.559 24.968 0 18.751-12.744 31.808-31.292 31.808-14.712 0-27.457-8.08-27.559-24.765m40.201-7.767c0-5.905-2.9-10.464-9.22-10.464-8.083 0-12.434 7.874-12.434 18.44 0 5.595 2.276 10.776 9.324 10.776 8.287 0 12.33-8.079 12.33-18.752m15.129 36.884c4.661-.206 6.941-1.969 7.562-6.11l8.497-53.67h18.544l-8.808 55.43c-1.555 10.465-7.875 18.649-27.768 17.716l1.973-13.366zm17.405-74.493c0-5.39 4.249-9.533 10.047-9.533 5.701 0 9.95 4.04 9.95 9.425 0 5.497-4.356 9.536-10.052 9.536-5.803 0-9.945-3.936-9.945-9.428m76.048 52.01c-1.137 7.149-1.551 12.33-1.346 16.889h-18.132c-.207-2.486-.207-5.079.104-8.185-4.043 5.489-9.013 9.429-17.198 9.429-11.398 0-18.963-6.633-16.373-22.794l5.18-32.639h18.548l-5.075 32.327c-.936 6.009 1.035 9.327 5.905 9.327 5.8 0 9.634-3.625 10.773-10.778l4.87-30.875h18.548l-5.804 37.299zm-221.858 47.262h26.834l7.978 39.269 20.413-39.269h27.973l-11.709 74.078h-21.134l7.355-46.413-25.485 46.413h-7.047l-10.568-46.413-7.359 46.413h-18.96zm83.203 60.301c0-14.198 10.984-18.962 28.496-18.962h7.978l.204-1.449c.832-5.08-.311-8.394-6.216-8.394-4.974 0-7.044 2.902-7.875 6.427h-17.405c2.695-13.266 12.33-19.481 26.109-19.481 17.406 0 26.004 7.563 23.414 23.727l-2.381 15.02c-1.143 7.048-1.45 12.335-.827 16.891h-17.926c-.417-2.277-.417-4.556-.311-6.729-3.315 4.349-8.083 7.973-16.059 7.973-9.843-.002-17.201-5.491-17.201-15.023m34.295-5.184l.516-3.313h-5.8c-7.46 0-10.566 1.553-10.566 6.012 0 2.796 2.071 5.074 6.111 5.074 5.079 0 9.015-3.006 9.739-7.773m31.706-17.508c1.244-7.772 1.76-12.846 1.862-17.717h18.135c0 2.694-.208 7.151-.725 11.501 4.35-8.497 10.255-12.328 19.685-12.225l-2.692 17.298c-11.398-.407-17.926 3.01-19.583 13.678l-3.834 23.935h-18.544l5.696-36.47zm94.596 33.364c-2.485 15.642-10.672 23.206-29.634 23.206-19.995 0-27.869-9.325-28.492-20.101h18.442c.52 3.417 3.002 7.045 9.531 7.045 7.979 0 10.673-4.353 11.607-10.254l1.24-7.772c-3.523 5.491-8.808 8.29-16.264 8.29-12.021 0-20.725-7.876-20.725-22.793 0-17.719 10.984-30.152 26.421-30.152 8.394 0 13.574 3.315 16.166 8.91l1.239-7.46h18.547l-8.078 51.081zm-13.885-28.908c0-5.905-3.524-9.945-9.22-9.945-7.981 0-12.019 7.563-12.019 15.229 0 6.216 2.799 10.565 8.597 10.565 7.772-.001 12.642-6.731 12.642-15.849m23.935 18.236c0-14.198 10.982-18.962 28.494-18.962h7.979l.203-1.449c.832-5.08-.311-8.394-6.216-8.394-4.973 0-7.044 2.902-7.876 6.427H534.85c2.695-13.266 12.331-19.481 26.109-19.481 17.408 0 26.005 7.563 23.413 23.727l-2.381 15.02c-1.14 7.048-1.45 12.335-.829 16.891H563.24c-.418-2.277-.418-4.556-.311-6.729-3.317 4.349-8.083 7.973-16.06 7.973-9.842-.002-17.2-5.491-17.2-15.023m34.296-5.184l.514-3.313h-5.798c-7.462 0-10.567 1.553-10.567 6.012 0 2.796 2.07 5.074 6.111 5.074 5.077 0 9.015-3.006 9.74-7.773m31.707-17.508c1.242-7.772 1.76-12.846 1.863-17.717h18.134c0 2.694-.207 7.151-.725 11.501 4.349-8.497 10.257-12.328 19.687-12.225l-2.696 17.298c-11.396-.407-17.923 3.01-19.582 13.678l-3.835 23.935h-18.54l5.694-36.47zm47.87-17.716h18.437l-8.493 54.186h-18.544l8.6-54.186zm1.346-14.713c0-5.386 4.245-9.531 10.043-9.531 5.702 0 9.95 4.038 9.95 9.429 0 5.491-4.352 9.531-10.05 9.531-5.802 0-9.943-3.936-9.943-9.429m25.381 49.73l3.524-22.377h-6.527l1.968-12.642h6.526l1.863-11.291h18.548l-1.76 11.291h10.464l-1.867 12.642h-10.564l-3.523 21.862c-.725 4.663 1.035 6.213 4.766 6.213 1.45 0 3.417-.308 5.178-.933l-2.171 13.988c-2.281.933-5.495 1.657-9.64 1.657-12.64.002-19.067-6.108-16.785-20.41m34.192 5.391c0-14.198 10.985-18.962 28.49-18.962h7.983l.204-1.449c.831-5.08-.312-8.394-6.217-8.394-4.973 0-7.044 2.902-7.872 6.427h-17.408c2.692-13.266 12.331-19.481 26.109-19.481 17.408 0 26.005 7.563 23.413 23.727l-2.381 15.02c-1.139 7.048-1.449 12.335-.825 16.891h-17.926c-.418-2.277-.418-4.556-.311-6.729-3.32 4.349-8.083 7.973-16.06 7.973-9.841-.002-17.199-5.491-17.199-15.023m34.296-5.184l.518-3.313h-5.802c-7.458 0-10.568 1.553-10.568 6.012 0 2.796 2.071 5.074 6.113 5.074 5.076 0 9.014-3.006 9.739-7.773m-423.156 83.605h-51.488v-9.346h33.488l.347-2.236h-28.743v-8.787h29.302v-2.444h-31.462v-9.491h44.719v3.631c0 3.21-.117 6.675-.35 10.396s-.651 6.792-1.254 9.208h5.442l-.001 9.069zm-48.139 2.092h44.51v18.975h-32.37v2.092h33.625v8.235h-38.579c-2.509 0-4.231-.394-5.163-1.188-1.352-1.118-2.022-3.396-2.022-6.834v-10.678h32.303v-2.299h-32.303v-8.303h-.001zm93.308-33.693v21.205h-16.746v3.21H363.7v9.629h-23.93c-4.373 0-7.058-.572-8.059-1.712-.999-1.139-1.498-3.803-1.498-7.986v-12.556h16.74v-2.092h-16.74v-9.698h30.557zm-20.792 62.994c-2.651 0-4.488-.414-5.508-1.257-1.396-1.159-2.093-3.465-2.093-6.902v-17.374h13.812v3.907h18.349v-3.907h13.881v25.533h-38.441zm6.21-9.629h18.349v-2.367h-18.349v2.367zm15.627-37.253v-10.879h2.722v-5.791h13.881v35.162h-13.881V476.89h-2.722z"/></svg>