<svg xmlns="http://www.w3.org/2000/svg" viewBox="0 0 1280 800"><path d="M222.3 405.5h19c.2 4.8 3.1 9.2 11.1 9.2 6.1.1 9.3-2.6 9.3-7.2 0-3.4-2.5-5.2-9.9-6.8-17.1-3.6-23.3-9.2-23.3-20.9 0-13.2 10.3-23.3 28.3-23.3 16.6 0 26.8 6.9 26.7 22h-18.4c-.4-5.3-3.5-7.6-8.9-7.6-5.5 0-8.2 2.6-8.2 6.4 0 3.2 2.2 4.7 9.9 6.4 15.9 3.4 23.6 8.8 23.6 20.9 0 14.4-10.3 24.4-29.5 24.5-19.2-.1-29.8-8.9-29.7-23.6zm65.3 0c-.1-17.5 12.2-30.4 29.7-30.4 14 0 26.2 7.7 26.2 23.7 0 17.8-12.1 30.2-29.7 30.2-14 0-26.1-7.7-26.2-23.5zm38.2-7.4c0-5.6-2.8-9.9-8.8-9.9-7.7 0-11.8 7.5-11.8 17.5 0 5.3 2.2 10.2 8.9 10.2 7.8 0 11.7-7.7 11.7-17.8zm14.4 35.1c4.4-.2 6.6-1.9 7.2-5.8l8.1-51h17.6l-8.4 52.7c-1.5 9.9-7.5 17.7-26.4 16.8l1.9-12.7zm16.5-70.8c0-5.1 4-9.1 9.5-9.1 5.4 0 9.5 3.8 9.5 9s-4.1 9.1-9.5 9.1c-5.6-.1-9.5-3.8-9.5-9zm72.3 49.4c-1.1 6.8-1.5 11.7-1.3 16h-17.2c-.2-2.4-.2-4.8.1-7.8-3.8 5.2-8.6 9-16.3 9-10.8 0-18-6.3-15.6-21.7l4.9-31h17.6l-4.8 30.7c-.9 5.7 1 8.9 5.6 8.9 5.5 0 9.2-3.4 10.2-10.2l4.6-29.3h17.6l-5.4 35.4zm33-55.4h25.5l7.6 37.3 19.4-37.3h26.6L530 426.8h-20.1l7-44.1-24.2 44.1H486l-10-44.1-7 44.1h-18l11-70.4zm79.1 57.3c0-13.5 10.4-18 27.1-18h7.6l.2-1.4c.8-4.8-.3-8-5.9-8-4.7 0-6.7 2.8-7.5 6.1H546c2.6-12.6 11.7-18.5 24.8-18.5 16.5 0 24.7 7.2 22.3 22.5l-2.3 14.3c-1.1 6.7-1.4 11.7-.8 16h-17c-.4-2.2-.4-4.3-.3-6.4-3.2 4.1-7.7 7.6-15.3 7.6-9.3.1-16.3-5.1-16.3-14.2zm32.6-4.9l.5-3.2h-5.5c-7.1 0-10 1.5-10 5.7 0 2.7 2 4.8 5.8 4.8 4.8.1 8.5-2.8 9.2-7.3zm30.1-16.6c1.2-7.4 1.7-12.2 1.8-16.8h17.2c0 2.6-.2 6.8-.7 10.9 4.1-8.1 9.7-11.7 18.7-11.6l-2.6 16.4c-10.8-.4-17 2.9-18.6 13l-3.6 22.7h-17.6l5.4-34.6zm89.9 31.7c-2.4 14.9-10.1 22.1-28.2 22.1-19 0-26.5-8.9-27.1-19.1H656c.5 3.3 2.9 6.7 9.1 6.7 7.6 0 10.1-4.1 11-9.7l1.2-7.4c-3.3 5.2-8.4 7.9-15.5 7.9-11.4 0-19.7-7.5-19.7-21.7 0-16.8 10.4-28.7 25.1-28.7 8 0 12.9 3.2 15.4 8.5l1.2-7.1h17.6l-7.7 48.5zm-13.2-27.5c0-5.6-3.3-9.5-8.8-9.5-7.6 0-11.4 7.2-11.4 14.5 0 5.9 2.7 10 8.2 10 7.4.1 12-6.3 12-15zm22.8 17.3c0-13.5 10.4-18 27.1-18h7.6l.2-1.4c.8-4.8-.3-8-5.9-8-4.7 0-6.7 2.8-7.5 6.1h-16.5c2.6-12.6 11.7-18.5 24.8-18.5 16.5 0 24.7 7.2 22.3 22.5l-2.3 14.3c-1.1 6.7-1.4 11.7-.8 16h-17c-.4-2.2-.4-4.3-.3-6.4-3.2 4.1-7.7 7.6-15.3 7.6-9.4.1-16.4-5.1-16.4-14.2zm32.6-4.9l.5-3.2h-5.5c-7.1 0-10 1.5-10 5.7 0 2.7 2 4.8 5.8 4.8 4.7.1 8.5-2.8 9.2-7.3zm30.1-16.6c1.2-7.4 1.7-12.2 1.8-16.8H785c0 2.6-.2 6.8-.7 10.9 4.1-8.1 9.7-11.7 18.7-11.6l-2.6 16.4c-10.8-.4-17 2.9-18.6 13l-3.6 22.7h-17.6l5.4-34.6zm45.5-16.9H829l-8.1 51.5h-17.6l8.2-51.5zm1.3-13.9c0-5.1 4-9.1 9.5-9.1 5.4 0 9.5 3.8 9.5 9s-4.1 9.1-9.5 9.1c-5.6-.1-9.5-3.8-9.5-9zm24.1 47.2l3.3-21.3H834l1.9-12h6.2l1.8-10.7h17.6l-1.7 10.7h9.9l-1.8 12h-10l-3.3 20.8c-.7 4.4 1 5.9 4.5 5.9 1.4 0 3.2-.3 4.9-.9l-2.1 13.3c-2.2.9-5.2 1.6-9.2 1.6-11.9 0-18-5.8-15.8-19.4zm32.5 5.1c0-13.5 10.4-18 27.1-18h7.6l.2-1.4c.8-4.8-.3-8-5.9-8-4.7 0-6.7 2.8-7.5 6.1h-16.5c2.6-12.6 11.7-18.5 24.8-18.5 16.5 0 24.7 7.2 22.3 22.5l-2.3 14.3c-1.1 6.7-1.4 11.7-.8 16h-17c-.4-2.2-.4-4.3-.3-6.4-3.2 4.1-7.7 7.6-15.3 7.6-9.4.1-16.4-5.1-16.4-14.2zm32.6-4.9l.5-3.2H897c-7.1 0-10 1.5-10 5.7 0 2.7 2 4.8 5.8 4.8 4.7.1 8.5-2.8 9.2-7.3zm94.8-12.1h-48.9v-8.9h31.8l.3-2.1h-27.3v-8.4h27.8V375h-29.9v-9h42.5v3.4c0 3-.1 6.3-.3 9.9-.2 3.5-.6 6.5-1.2 8.8h5.2v8.6zm-45.8 2h42.3v18h-30.8v2h32v7.8h-36.7c-2.4 0-4-.4-4.9-1.1-1.3-1.1-1.9-3.2-1.9-6.5v-10.1h30.7v-2.2H951v-7.9zm88.7-32v20.2h-15.9v3h18.7v9.1h-22.7c-4.2 0-6.7-.5-7.7-1.6s-1.4-3.6-1.4-7.6v-11.9h15.9v-2h-15.9v-9.2h29zm-19.8 59.9c-2.5 0-4.3-.4-5.2-1.2-1.3-1.1-2-3.3-2-6.6v-16.5h13.1v3.7h17.4v-3.7h13.2v24.3h-36.5zm5.9-9.2h17.4v-2.3h-17.4v2.3zm14.9-35.4v-10.3h2.6v-5.5h13.2v33.4h-13.2V382h-2.6z" fill="#FFF"/></svg>