<svg xmlns="http://www.w3.org/2000/svg" width="auto" height="auto" viewBox="0 0 495.507 280.96"><path d="M51.491 247.527H.003v-9.346h33.488l.347-2.236H5.095v-8.787h29.302v-2.444H2.935v-9.491h44.719v3.631c0 3.21-.117 6.675-.35 10.396s-.651 6.792-1.254 9.208h5.442l-.001 9.069zm-48.139 2.092h44.51v18.975h-32.37v2.092h33.625v8.235H10.538c-2.509 0-4.231-.394-5.163-1.188-1.352-1.118-2.022-3.396-2.022-6.834V260.22h32.303v-2.299H3.353v-8.303l-.001.001zm93.308-33.693v21.205H79.914v3.21H99.59v9.629H75.66c-4.373 0-7.058-.572-8.059-1.712-.999-1.139-1.498-3.803-1.498-7.986v-12.556h16.74v-2.092h-16.74v-9.698H96.66zM75.868 278.92c-2.651 0-4.488-.414-5.508-1.257-1.396-1.159-2.093-3.465-2.093-6.902v-17.374h13.812v3.907h18.349v-3.907h13.881v25.533H75.868zm6.21-9.629h18.349v-2.367H82.078v2.367zm15.627-37.253v-10.879h2.722v-5.791h13.881v35.162h-13.881v-18.492h-2.722z"/></svg>