<svg xmlns="http://www.w3.org/2000/svg" viewBox="0 0 558.2 62.7"><path d="M0 35.6h12.7c.1 3.2 2 6.1 7.4 6.1 4.1.1 6.2-1.7 6.2-4.8 0-2.3-1.6-3.5-6.7-4.5C8.1 30 4 26.3 4 18.4c.1-8.8 7-15.6 19-15.6 11.1 0 17.9 4.6 17.9 14.7H28.5c-.3-3.6-2.4-5.1-5.9-5.1-3.7 0-5.5 1.7-5.5 4.3 0 2.2 1.4 3.2 6.7 4.3 10.6 2.3 15.8 5.9 15.8 14 0 9.6-6.9 16.3-19.8 16.4C7.1 51.3-.1 45.4 0 35.6zm43.7 0c-.1-11.7 8.2-20.4 19.9-20.4 9.4 0 17.5 5.1 17.5 15.9 0 11.9-8.1 20.2-19.9 20.2-9.3 0-17.5-5.1-17.5-15.7zm25.5-4.9c0-3.8-1.8-6.7-5.9-6.7-5.1 0-7.9 5-7.9 11.7 0 3.6 1.4 6.9 5.9 6.9 5.4 0 7.9-5.2 7.9-11.9zm9.7 23.4c3-.1 4.4-1.3 4.8-3.9l5.4-34.1h11.8l-5.6 35.2c-1 6.7-5 11.9-17.7 11.3l1.3-8.5zm11-47.4c0-3.4 2.7-6.1 6.4-6.1 3.6 0 6.3 2.6 6.3 6 0 3.5-2.8 6.1-6.4 6.1-3.6 0-6.3-2.5-6.3-6zm48.4 33.1c-.7 4.5-1 7.8-.9 10.7h-11.5c-.1-1.6-.1-3.2.1-5.2-2.6 3.5-5.7 6-10.9 6-7.2 0-12.1-4.2-10.4-14.5L108 16h11.8l-3.2 20.6c-.6 3.8.7 5.9 3.8 5.9 3.7 0 6.1-2.3 6.9-6.9l3.1-19.6H142l-3.7 23.8zm22.1-37h17.1l5.1 25 13-25h17.8L206 49.9h-13.4l4.7-29.5-16.2 29.5h-4.5l-6.7-29.5-4.9 29.5h-12l7.4-47.1zm52.9 38.3c0-9 7-12.1 18.1-12.1h5.1l.1-.9c.5-3.2-.2-5.3-4-5.3-3.2 0-4.5 1.8-5 4.1h-11.1c1.7-8.4 7.8-12.4 16.6-12.4 11.1 0 16.5 4.8 14.9 15.1l-1.5 9.6c-.7 4.5-.9 7.8-.5 10.7h-11.4c-.3-1.4-.3-2.9-.2-4.3-2.1 2.8-5.1 5.1-10.2 5.1-6.2 0-10.9-3.5-10.9-9.6zm21.8-3.3l.3-2.1h-3.7c-4.7 0-6.7 1-6.7 3.8 0 1.8 1.3 3.2 3.9 3.2 3.3.1 5.8-1.9 6.2-4.9zm20.2-11.1c.8-4.9 1.1-8.2 1.2-11.3H268c0 1.7-.1 4.5-.5 7.3 2.8-5.4 6.5-7.8 12.5-7.8l-1.7 11c-7.2-.3-11.4 1.9-12.5 8.7l-2.4 15.2h-11.8l3.7-23.1zm60.1 21.2c-1.6 9.9-6.8 14.8-18.8 14.8-12.7 0-17.7-5.9-18.1-12.8h11.7c.3 2.2 1.9 4.5 6.1 4.5 5.1 0 6.8-2.8 7.4-6.5l.8-4.9c-2.2 3.5-5.6 5.3-10.3 5.3-7.6 0-13.2-5-13.2-14.5 0-11.3 7-19.2 16.8-19.2 5.3 0 8.6 2.1 10.3 5.7l.8-4.7h11.8l-5.3 32.3zm-8.8-18.4c0-3.8-2.2-6.3-5.9-6.3-5.1 0-7.6 4.8-7.6 9.7 0 4 1.8 6.7 5.5 6.7 4.9 0 8-4.3 8-10.1zm15.2 11.6c0-9 7-12.1 18.1-12.1h5.1l.1-.9c.5-3.2-.2-5.3-4-5.3-3.2 0-4.5 1.8-5 4.1H325c1.7-8.4 7.8-12.4 16.6-12.4 11.1 0 16.5 4.8 14.9 15.1l-1.5 9.6c-.7 4.5-.9 7.8-.5 10.7h-11.4c-.3-1.4-.3-2.9-.2-4.3-2.1 2.8-5.1 5.1-10.2 5.1-6.2 0-10.9-3.5-10.9-9.6zm21.8-3.3l.3-2.1h-3.7c-4.7 0-6.7 1-6.7 3.8 0 1.8 1.3 3.2 3.9 3.2 3.3.1 5.8-1.9 6.2-4.9zm20.2-11.1c.8-4.9 1.1-8.2 1.2-11.3h11.5c0 1.7-.1 4.5-.5 7.3 2.8-5.4 6.5-7.8 12.5-7.8l-1.7 11c-7.2-.3-11.4 1.9-12.5 8.7L372 49.9h-11.8l3.6-23.2zm30.4-11.3H406l-5.4 34.5h-11.8l5.4-34.5zm.9-9.3c0-3.4 2.7-6.1 6.4-6.1 3.6 0 6.3 2.6 6.3 6 0 3.5-2.8 6.1-6.4 6.1-3.7 0-6.3-2.5-6.3-6zm16.1 31.6l2.2-14.2h-4.2l1.3-8h4.1l1.2-7.2h11.8l-1.1 7.2h6.7l-1.2 8h-6.7l-2.2 13.9c-.5 3 .7 4 3 4 .9 0 2.2-.2 3.3-.6l-1.4 8.9c-1.4.6-3.5 1.1-6.1 1.1-8-.1-12.1-4-10.7-13.1zm21.8 3.4c0-9 7-12.1 18.1-12.1h5.1l.1-.9c.5-3.2-.2-5.3-4-5.3-3.2 0-4.5 1.8-5 4.1h-11.1c1.7-8.4 7.8-12.4 16.6-12.4 11.1 0 16.5 4.8 14.9 15.1l-1.5 9.6c-.7 4.5-.9 7.8-.5 10.7h-11.4c-.3-1.4-.3-2.9-.2-4.3-2.1 2.8-5.1 5.1-10.2 5.1-6.2 0-10.9-3.5-10.9-9.6zm21.8-3.3l.3-2.1h-3.7c-4.7 0-6.7 1-6.7 3.8 0 1.8 1.3 3.2 3.9 3.2 3.2.1 5.7-1.9 6.2-4.9zm63.4-8.1h-32.7v-5.9h21.3l.2-1.4h-18.3v-5.6h18.6v-1.6h-20v-6h28.4v2.3c0 2-.1 4.2-.2 6.6-.1 2.4-.4 4.3-.8 5.9h3.5v5.7zm-30.6 1.4h28.3v12.1h-20.6v1.3h21.4v5.2h-24.5c-1.6 0-2.7-.3-3.3-.8-.9-.7-1.3-2.2-1.3-4.3v-6.8h20.5v-1.5h-20.5v-5.2zm59.3-21.5v13.5h-10.6v2h12.5v6.1h-15.2c-2.8 0-4.5-.4-5.1-1.1-.6-.7-1-2.4-1-5.1v-8h10.6v-1.3h-10.6V9.6h19.4zm-13.2 40.1c-1.7 0-2.9-.3-3.5-.8-.9-.7-1.3-2.2-1.3-4.4v-11h8.8V36h11.7v-2.5h8.8v16.2h-24.5zm4-6.1h11.7v-1.5h-11.7v1.5zm9.9-23.7V13h1.7V9.3h8.8v22.4h-8.8V19.9h-1.7z"/></svg>