<svg xmlns="http://www.w3.org/2000/svg" viewBox="0 0 508.52 508.52"><path d="M254.26 0C113.845 0 0 113.845 0 254.26s113.845 254.26 254.26 254.26 254.26-113.845 254.26-254.26S394.675 0 254.26 0zm117.436 403.288c-3.178 5.816-9.122 9.058-15.287 9.058a17.54 17.54 0 0 1-8.422-2.129c-40.713-22.438-86.957-34.293-133.677-34.293-28 0-55.651 4.163-82.126 12.363-9.217 2.86-19.006-2.288-21.835-11.537-2.86-9.185 2.288-28.7 11.537-31.592 29.844-9.249 60.959-13.921 92.455-13.921 52.568 0 104.66 13.349 150.522 38.616 8.454 4.608 11.537 25.013 6.833 33.435zm32.323-95.761c-3.623 7.024-10.742 18.338-18.084 18.338-3.21 0-6.388-.699-9.376-2.32-50.471-26.189-105.041-39.474-162.218-39.474-31.496 0-62.77 4.132-92.964 12.459-10.901 2.956-22.089-3.401-25.045-14.302-2.924-10.901 3.464-29.431 14.334-32.386a394.321 394.321 0 0 1 103.674-13.857c62.898 0 125.445 15.256 180.938 44.114 10.012 5.149 13.921 17.417 8.741 27.428zm13.507-76.691c-3.464 0-7.024-.795-10.361-2.447-60.228-30.034-125.096-45.226-192.761-45.226-35.279 0-70.43 4.291-104.533 12.713-12.522 3.083-25.14-4.513-28.223-17.004-3.115-12.459 4.513-27.555 17.004-30.638 37.726-9.376 76.659-14.111 115.72-14.111 74.975 0 146.867 16.877 213.578 50.121 11.537 5.753 16.241 19.737 10.488 31.242-4.13 8.167-12.33 15.35-20.912 15.35z"/></svg>