<?xml version="1.0" encoding="utf-8"?>
<!-- Generator: Adobe Illustrator 17.0.0, SVG Export Plug-In . SVG Version: 6.00 Build 0)  -->
<!DOCTYPE svg PUBLIC "-//W3C//DTD SVG 1.1//EN" "http://www.w3.org/Graphics/SVG/1.1/DTD/svg11.dtd">
<svg version="1.1" id="Layer_1" xmlns="http://www.w3.org/2000/svg" xmlns:xlink="http://www.w3.org/1999/xlink" x="0px" y="0px"
	 width="auto" height="auto" viewBox="264.11 236.5 495.507 291" enable-background="new 264.11 236.5 495.507 291"
	 xml:space="preserve">
<path d="M280.199,299.764h19.997c0.207,5.079,3.211,9.638,11.708,9.638c6.421,0.102,9.74-2.694,9.74-7.567
	c0-3.622-2.59-5.487-10.464-7.146c-18.028-3.834-24.556-9.638-24.556-21.967c0-13.883,10.878-24.553,29.737-24.553
	c17.508,0,28.182,7.253,28.08,23.103h-19.379c-0.412-5.595-3.727-7.976-9.322-7.976c-5.803,0-8.603,2.692-8.603,6.732
	c0,3.422,2.283,4.977,10.464,6.737c16.682,3.625,24.867,9.22,24.867,21.964c0,15.125-10.879,25.697-31.083,25.798
	C291.286,324.527,280.094,315.206,280.199,299.764 M348.894,299.761c-0.102-18.44,12.847-32.011,31.292-32.011
	c14.709,0,27.559,8.078,27.559,24.968c0,18.751-12.744,31.808-31.292,31.808C361.741,324.526,348.996,316.446,348.894,299.761
	 M389.095,291.994c0-5.905-2.9-10.464-9.22-10.464c-8.083,0-12.434,7.874-12.434,18.44c0,5.595,2.276,10.776,9.324,10.776
	C385.052,310.746,389.095,302.667,389.095,291.994 M404.224,328.878c4.661-0.206,6.941-1.969,7.562-6.11l8.497-53.67h18.544
	l-8.808,55.43c-1.555,10.465-7.875,18.649-27.768,17.716L404.224,328.878z M421.629,254.385c0-5.39,4.249-9.533,10.047-9.533
	c5.701,0,9.95,4.04,9.95,9.425c0,5.497-4.356,9.536-10.052,9.536C425.771,263.813,421.629,259.877,421.629,254.385 M497.677,306.395
	c-1.137,7.149-1.551,12.33-1.346,16.889h-18.132c-0.207-2.486-0.207-5.079,0.104-8.185c-4.043,5.489-9.013,9.429-17.198,9.429
	c-11.398,0-18.963-6.633-16.373-22.794l5.18-32.639h18.548l-5.075,32.327c-0.936,6.009,1.035,9.327,5.905,9.327
	c5.8,0,9.634-3.625,10.773-10.778l4.87-30.875h18.548L497.677,306.395z"/>
<polygon points="275.819,353.657 302.653,353.657 310.631,392.926 331.044,353.657 359.017,353.657 347.308,427.735
	326.174,427.735 333.529,381.322 308.044,427.735 300.997,427.735 290.429,381.322 283.07,427.735 264.11,427.735 "/>
<path d="M359.022,413.958c0-14.198,10.984-18.962,28.496-18.962h7.978l0.204-1.449c0.832-5.08-0.311-8.394-6.216-8.394
	c-4.974,0-7.044,2.902-7.875,6.427h-17.405c2.695-13.266,12.33-19.481,26.109-19.481c17.406,0,26.004,7.563,23.414,23.727
	l-2.381,15.02c-1.143,7.048-1.45,12.335-0.827,16.891h-17.926c-0.417-2.277-0.417-4.556-0.311-6.729
	c-3.315,4.349-8.083,7.973-16.059,7.973C366.38,428.979,359.022,423.49,359.022,413.958 M393.317,408.774l0.516-3.313h-5.8
	c-7.46,0-10.566,1.553-10.566,6.012c0,2.796,2.071,5.074,6.111,5.074C388.657,416.547,392.593,413.541,393.317,408.774
	 M425.023,391.266c1.244-7.772,1.76-12.846,1.862-17.717h18.135c0,2.694-0.208,7.151-0.725,11.501
	c4.35-8.497,10.255-12.328,19.685-12.225l-2.692,17.298c-11.398-0.407-17.926,3.01-19.583,13.678l-3.834,23.935h-18.544
	L425.023,391.266z M519.619,424.63c-2.485,15.642-10.672,23.206-29.634,23.206c-19.995,0-27.869-9.325-28.492-20.101h18.442
	c0.52,3.417,3.002,7.045,9.531,7.045c7.979,0,10.673-4.353,11.607-10.254l1.24-7.772c-3.523,5.491-8.808,8.29-16.264,8.29
	c-12.021,0-20.725-7.876-20.725-22.793c0-17.719,10.984-30.152,26.421-30.152c8.394,0,13.574,3.315,16.166,8.91l1.239-7.46h18.547
	L519.619,424.63z M505.734,395.722c0-5.905-3.524-9.945-9.22-9.945c-7.981,0-12.019,7.563-12.019,15.229
	c0,6.216,2.799,10.565,8.597,10.565C500.864,411.57,505.734,404.84,505.734,395.722 M529.669,413.958
	c0-14.198,10.982-18.962,28.494-18.962h7.979l0.203-1.449c0.832-5.08-0.311-8.394-6.216-8.394c-4.973,0-7.044,2.902-7.876,6.427
	H534.85c2.695-13.266,12.331-19.481,26.109-19.481c17.408,0,26.005,7.563,23.413,23.727l-2.381,15.02
	c-1.14,7.048-1.45,12.335-0.829,16.891H563.24c-0.418-2.277-0.418-4.556-0.311-6.729c-3.317,4.349-8.083,7.973-16.06,7.973
	C537.027,428.979,529.669,423.49,529.669,413.958 M563.965,408.774l0.514-3.313h-5.798c-7.462,0-10.567,1.553-10.567,6.012
	c0,2.796,2.07,5.074,6.111,5.074C559.302,416.547,563.24,413.541,563.965,408.774 M595.672,391.266
	c1.242-7.772,1.76-12.846,1.863-17.717h18.134c0,2.694-0.207,7.151-0.725,11.501c4.349-8.497,10.257-12.328,19.687-12.225
	l-2.696,17.298c-11.396-0.407-17.923,3.01-19.582,13.678l-3.835,23.935h-18.54L595.672,391.266z M643.542,373.55h18.437
	l-8.493,54.186h-18.544L643.542,373.55z M644.888,358.837c0-5.386,4.245-9.531,10.043-9.531c5.702,0,9.95,4.038,9.95,9.429
	c0,5.491-4.352,9.531-10.05,9.531C649.029,368.266,644.888,364.33,644.888,358.837 M670.269,408.567l3.524-22.377h-6.527
	l1.968-12.642h6.526l1.863-11.291h18.548l-1.76,11.291h10.464l-1.867,12.642h-10.564l-3.523,21.862
	c-0.725,4.663,1.035,6.213,4.766,6.213c1.45,0,3.417-0.308,5.178-0.933l-2.171,13.988c-2.281,0.933-5.495,1.657-9.64,1.657
	C674.414,428.979,667.987,422.869,670.269,408.567 M704.461,413.958c0-14.198,10.985-18.962,28.49-18.962h7.983l0.204-1.449
	c0.831-5.08-0.312-8.394-6.217-8.394c-4.973,0-7.044,2.902-7.872,6.427h-17.408c2.692-13.266,12.331-19.481,26.109-19.481
	c17.408,0,26.005,7.563,23.413,23.727l-2.381,15.02c-1.139,7.048-1.449,12.335-0.825,16.891h-17.926
	c-0.418-2.277-0.418-4.556-0.311-6.729c-3.32,4.349-8.083,7.973-16.06,7.973C711.819,428.979,704.461,423.49,704.461,413.958
	 M738.757,408.774l0.518-3.313h-5.802c-7.458,0-10.568,1.553-10.568,6.012c0,2.796,2.071,5.074,6.113,5.074
	C734.094,416.547,738.032,413.541,738.757,408.774 M315.601,492.379h-51.488v-9.346h33.488l0.347-2.236h-28.743v-8.787h29.302
	v-2.444h-31.462v-9.491h44.719v3.631c0,3.21-0.117,6.675-0.35,10.396s-0.651,6.792-1.254,9.208h5.442L315.601,492.379
	L315.601,492.379z M267.462,494.471h44.51v18.975h-32.37v2.092h33.625v8.235h-38.579c-2.509,0-4.231-0.394-5.163-1.188
	c-1.352-1.118-2.022-3.396-2.022-6.834v-10.678h32.303v-2.299h-32.303v-8.303H267.462z M360.77,460.778v21.205h-16.746v3.21H363.7
	v9.629h-23.93c-4.373,0-7.058-0.572-8.059-1.712c-0.999-1.139-1.498-3.803-1.498-7.986v-12.556h16.74v-2.092h-16.74v-9.698
	L360.77,460.778L360.77,460.778z M339.978,523.772c-2.651,0-4.488-0.414-5.508-1.257c-1.396-1.159-2.093-3.465-2.093-6.902v-17.374
	h13.812v3.907h18.349v-3.907h13.881v25.533H339.978z M346.188,514.143h18.349v-2.367h-18.349V514.143z M361.815,476.89v-10.879
	h2.722v-5.791h13.881v35.162h-13.881V476.89H361.815z"/>
</svg>
