<svg version="1.1" id="Layer_1" xmlns="http://www.w3.org/2000/svg" xmlns:xlink="http://www.w3.org/1999/xlink" x="0px" y="0px"
	 width="auto" height="auto" viewBox="0 0 495.507 280.96" enable-background="new 0 0 495.507 280.96"
	 xml:space="preserve">
<path d="M16.089,54.912h19.997c0.207,5.079,3.211,9.638,11.708,9.638c6.421,0.102,9.74-2.694,9.74-7.567
	c0-3.622-2.59-5.487-10.464-7.146c-18.028-3.834-24.556-9.638-24.556-21.967c0-13.883,10.878-24.553,29.737-24.553
	c17.508,0,28.182,7.253,28.08,23.103H60.952c-0.412-5.595-3.727-7.976-9.322-7.976c-5.803,0-8.603,2.692-8.603,6.732
	c0,3.422,2.283,4.977,10.464,6.737c16.682,3.625,24.867,9.22,24.867,21.964c0,15.125-10.879,25.697-31.083,25.798
	C27.176,79.675,15.984,70.354,16.089,54.912 M84.784,54.909c-0.102-18.44,12.847-32.011,31.292-32.011
	c14.709,0,27.559,8.078,27.559,24.968c0,18.751-12.744,31.808-31.292,31.808C97.631,79.674,84.886,71.594,84.784,54.909
	 M124.985,47.142c0-5.905-2.9-10.464-9.22-10.464c-8.083,0-12.434,7.874-12.434,18.44c0,5.595,2.276,10.776,9.324,10.776
	C120.942,65.894,124.985,57.815,124.985,47.142 M140.114,84.026c4.661-0.206,6.941-1.969,7.562-6.11l8.497-53.67h18.544
	l-8.808,55.43c-1.555,10.465-7.875,18.649-27.768,17.716L140.114,84.026z M157.519,9.533c0-5.39,4.249-9.533,10.047-9.533
	c5.701,0,9.95,4.04,9.95,9.425c0,5.497-4.356,9.536-10.052,9.536C161.661,18.961,157.519,15.025,157.519,9.533 M233.567,61.543
	c-1.137,7.149-1.551,12.33-1.346,16.889h-18.132c-0.207-2.486-0.207-5.079,0.104-8.185c-4.043,5.489-9.013,9.429-17.198,9.429
	c-11.398,0-18.963-6.633-16.373-22.794l5.18-32.639h18.548l-5.075,32.327c-0.936,6.009,1.035,9.327,5.905,9.327
	c5.8,0,9.634-3.625,10.773-10.778l4.87-30.875h18.548L233.567,61.543z"/>
<polygon points="11.709,108.805 38.543,108.805 46.521,148.074 66.934,108.805 94.907,108.805 83.198,182.883 62.064,182.883
	69.419,136.47 43.934,182.883 36.887,182.883 26.319,136.47 18.96,182.883 0,182.883 "/>
<path d="M94.912,169.106c0-14.198,10.984-18.962,28.496-18.962h7.978l0.204-1.449c0.832-5.08-0.311-8.394-6.216-8.394
	c-4.974,0-7.044,2.902-7.875,6.427h-17.405c2.695-13.266,12.33-19.481,26.109-19.481c17.406,0,26.004,7.563,23.414,23.727
	l-2.381,15.02c-1.143,7.048-1.45,12.335-0.827,16.891h-17.926c-0.417-2.277-0.417-4.556-0.311-6.729
	c-3.315,4.349-8.083,7.973-16.059,7.973C102.27,184.127,94.912,178.638,94.912,169.106 M129.207,163.922l0.516-3.313h-5.8
	c-7.46,0-10.566,1.553-10.566,6.012c0,2.796,2.071,5.074,6.111,5.074C124.547,171.695,128.483,168.689,129.207,163.922
	 M160.913,146.414c1.244-7.772,1.76-12.846,1.862-17.717h18.135c0,2.694-0.208,7.151-0.725,11.501
	c4.35-8.497,10.255-12.328,19.685-12.225l-2.692,17.298c-11.398-0.407-17.926,3.01-19.583,13.678l-3.834,23.935h-18.544
	L160.913,146.414z M255.509,179.778c-2.485,15.642-10.672,23.206-29.634,23.206c-19.995,0-27.869-9.325-28.492-20.101h18.442
	c0.52,3.417,3.002,7.045,9.531,7.045c7.979,0,10.673-4.353,11.607-10.254l1.24-7.772c-3.523,5.491-8.808,8.29-16.264,8.29
	c-12.021,0-20.725-7.876-20.725-22.793c0-17.719,10.984-30.152,26.421-30.152c8.394,0,13.574,3.315,16.166,8.91l1.239-7.46h18.547
	L255.509,179.778z M241.624,150.87c0-5.905-3.524-9.945-9.22-9.945c-7.981,0-12.019,7.563-12.019,15.229
	c0,6.216,2.799,10.565,8.597,10.565C236.754,166.718,241.624,159.988,241.624,150.87 M265.559,169.106
	c0-14.198,10.982-18.962,28.494-18.962h7.979l0.203-1.449c0.832-5.08-0.311-8.394-6.216-8.394c-4.973,0-7.044,2.902-7.876,6.427
	H270.74c2.695-13.266,12.331-19.481,26.109-19.481c17.408,0,26.005,7.563,23.413,23.727l-2.381,15.02
	c-1.14,7.048-1.45,12.335-0.829,16.891H299.13c-0.418-2.277-0.418-4.556-0.311-6.729c-3.317,4.349-8.083,7.973-16.06,7.973
	C272.917,184.127,265.559,178.638,265.559,169.106 M299.855,163.922l0.514-3.313h-5.798c-7.462,0-10.567,1.553-10.567,6.012
	c0,2.796,2.07,5.074,6.111,5.074C295.192,171.695,299.13,168.689,299.855,163.922 M331.562,146.414
	c1.242-7.772,1.76-12.846,1.863-17.717h18.134c0,2.694-0.207,7.151-0.725,11.501c4.349-8.497,10.257-12.328,19.687-12.225
	l-2.696,17.298c-11.396-0.407-17.923,3.01-19.582,13.678l-3.835,23.935h-18.54L331.562,146.414z M379.432,128.698h18.437
	l-8.493,54.186h-18.544L379.432,128.698z M380.778,113.985c0-5.386,4.245-9.531,10.043-9.531c5.702,0,9.95,4.038,9.95,9.429
	c0,5.491-4.352,9.531-10.05,9.531C384.919,123.414,380.778,119.478,380.778,113.985 M406.159,163.715l3.524-22.377h-6.527
	l1.968-12.642h6.526l1.863-11.291h18.548l-1.76,11.291h10.464l-1.867,12.642h-10.564l-3.523,21.862
	c-0.725,4.663,1.035,6.213,4.766,6.213c1.45,0,3.417-0.308,5.178-0.933l-2.171,13.988c-2.281,0.933-5.495,1.657-9.64,1.657
	C410.304,184.127,403.877,178.017,406.159,163.715 M440.351,169.106c0-14.198,10.985-18.962,28.49-18.962h7.983l0.204-1.449
	c0.831-5.08-0.312-8.394-6.217-8.394c-4.973,0-7.044,2.902-7.872,6.427h-17.408c2.692-13.266,12.331-19.481,26.109-19.481
	c17.408,0,26.005,7.563,23.413,23.727l-2.381,15.02c-1.139,7.048-1.449,12.335-0.825,16.891h-17.926
	c-0.418-2.277-0.418-4.556-0.311-6.729c-3.32,4.349-8.083,7.973-16.06,7.973C447.709,184.127,440.351,178.638,440.351,169.106
	 M474.647,163.922l0.518-3.313h-5.802c-7.458,0-10.568,1.553-10.568,6.012c0,2.796,2.071,5.074,6.113,5.074
	C469.984,171.695,473.922,168.689,474.647,163.922"/>
</svg>
