<?xml version="1.0" encoding="utf-8"?>
<!-- Generator: Adobe Illustrator 18.0.0, SVG Export Plug-In . SVG Version: 6.00 Build 0)  -->
<!DOCTYPE svg PUBLIC "-//W3C//DTD SVG 1.1//EN" "http://www.w3.org/Graphics/SVG/1.1/DTD/svg11.dtd">
<svg version="1.1" id="Layer_1" xmlns="http://www.w3.org/2000/svg" xmlns:xlink="http://www.w3.org/1999/xlink" x="0px" y="0px"
	 viewBox="0 0 558.2 62.7" enable-background="new 0 0 558.2 62.7" xml:space="preserve">
<g>
	<path fill="#FFFFFF" d="M0,35.6h12.7c0.1,3.2,2,6.1,7.4,6.1c4.1,0.1,6.2-1.7,6.2-4.8c0-2.3-1.6-3.5-6.7-4.5
		c-11.5-2.4-15.6-6.1-15.6-14C4.1,9.6,11,2.8,23,2.8c11.1,0,17.9,4.6,17.9,14.7H28.5c-0.3-3.6-2.4-5.1-5.9-5.1
		c-3.7,0-5.5,1.7-5.5,4.3c0,2.2,1.4,3.2,6.7,4.3c10.6,2.3,15.8,5.9,15.8,14c0,9.6-6.9,16.3-19.8,16.4C7.1,51.3-0.1,45.4,0,35.6z"/>
	<path fill="#FFFFFF" d="M43.7,35.6c-0.1-11.7,8.2-20.4,19.9-20.4c9.4,0,17.5,5.1,17.5,15.9c0,11.9-8.1,20.2-19.9,20.2
		C51.9,51.3,43.7,46.2,43.7,35.6z M69.2,30.7c0-3.8-1.8-6.7-5.9-6.7c-5.1,0-7.9,5-7.9,11.7c0,3.6,1.4,6.9,5.9,6.9
		C66.7,42.6,69.2,37.4,69.2,30.7z"/>
	<path fill="#FFFFFF" d="M78.9,54.1c3-0.1,4.4-1.3,4.8-3.9l5.4-34.1h11.8l-5.6,35.2c-1,6.7-5,11.9-17.7,11.3L78.9,54.1z M89.9,6.7
		c0-3.4,2.7-6.1,6.4-6.1c3.6,0,6.3,2.6,6.3,6c0,3.5-2.8,6.1-6.4,6.1C92.6,12.7,89.9,10.2,89.9,6.7z"/>
	<path fill="#FFFFFF" d="M138.3,39.8c-0.7,4.5-1,7.8-0.9,10.7h-11.5c-0.1-1.6-0.1-3.2,0.1-5.2c-2.6,3.5-5.7,6-10.9,6
		c-7.2,0-12.1-4.2-10.4-14.5l3.3-20.8h11.8l-3.2,20.6c-0.6,3.8,0.7,5.9,3.8,5.9c3.7,0,6.1-2.3,6.9-6.9l3.1-19.6H142L138.3,39.8z"/>
</g>
<g>
	<path fill="#FFFFFF" d="M160.4,2.8h17.1l5.1,25l13-25h17.8l-7.4,47.1h-13.4l4.7-29.5l-16.2,29.5h-4.5l-6.7-29.5L165,49.9H153
		L160.4,2.8z"/>
	<path fill="#FFFFFF" d="M213.3,41.1c0-9,7-12.1,18.1-12.1h5.1l0.1-0.9c0.5-3.2-0.2-5.3-4-5.3c-3.2,0-4.5,1.8-5,4.1h-11.1
		c1.7-8.4,7.8-12.4,16.6-12.4c11.1,0,16.5,4.8,14.9,15.1l-1.5,9.6c-0.7,4.5-0.9,7.8-0.5,10.7h-11.4c-0.3-1.4-0.3-2.9-0.2-4.3
		c-2.1,2.8-5.1,5.1-10.2,5.1C218,50.7,213.3,47.2,213.3,41.1z M235.1,37.8l0.3-2.1h-3.7c-4.7,0-6.7,1-6.7,3.8c0,1.8,1.3,3.2,3.9,3.2
		C232.2,42.8,234.7,40.8,235.1,37.8z"/>
	<path fill="#FFFFFF" d="M255.3,26.7c0.8-4.9,1.1-8.2,1.2-11.3H268c0,1.7-0.1,4.5-0.5,7.3c2.8-5.4,6.5-7.8,12.5-7.8l-1.7,11
		c-7.2-0.3-11.4,1.9-12.5,8.7l-2.4,15.2h-11.8L255.3,26.7z"/>
	<path fill="#FFFFFF" d="M315.4,47.9c-1.6,9.9-6.8,14.8-18.8,14.8c-12.7,0-17.7-5.9-18.1-12.8h11.7c0.3,2.2,1.9,4.5,6.1,4.5
		c5.1,0,6.8-2.8,7.4-6.5l0.8-4.9c-2.2,3.5-5.6,5.3-10.3,5.3c-7.6,0-13.2-5-13.2-14.5c0-11.3,7-19.2,16.8-19.2
		c5.3,0,8.6,2.1,10.3,5.7l0.8-4.7h11.8L315.4,47.9z M306.6,29.5c0-3.8-2.2-6.3-5.9-6.3c-5.1,0-7.6,4.8-7.6,9.7c0,4,1.8,6.7,5.5,6.7
		C303.5,39.6,306.6,35.3,306.6,29.5z"/>
	<path fill="#FFFFFF" d="M321.8,41.1c0-9,7-12.1,18.1-12.1h5.1l0.1-0.9c0.5-3.2-0.2-5.3-4-5.3c-3.2,0-4.5,1.8-5,4.1h-11.1
		c1.7-8.4,7.8-12.4,16.6-12.4c11.1,0,16.5,4.8,14.9,15.1l-1.5,9.6c-0.7,4.5-0.9,7.8-0.5,10.7h-11.4c-0.3-1.4-0.3-2.9-0.2-4.3
		c-2.1,2.8-5.1,5.1-10.2,5.1C326.5,50.7,321.8,47.2,321.8,41.1z M343.6,37.8l0.3-2.1h-3.7c-4.7,0-6.7,1-6.7,3.8
		c0,1.8,1.3,3.2,3.9,3.2C340.7,42.8,343.2,40.8,343.6,37.8z"/>
	<path fill="#FFFFFF" d="M363.8,26.7c0.8-4.9,1.1-8.2,1.2-11.3h11.5c0,1.7-0.1,4.5-0.5,7.3c2.8-5.4,6.5-7.8,12.5-7.8l-1.7,11
		c-7.2-0.3-11.4,1.9-12.5,8.7L372,49.9h-11.8L363.8,26.7z"/>
	<path fill="#FFFFFF" d="M394.2,15.4H406l-5.4,34.5h-11.8L394.2,15.4z M395.1,6.1c0-3.4,2.7-6.1,6.4-6.1c3.6,0,6.3,2.6,6.3,6
		c0,3.5-2.8,6.1-6.4,6.1C397.7,12.1,395.1,9.6,395.1,6.1z"/>
	<path fill="#FFFFFF" d="M411.2,37.7l2.2-14.2h-4.2l1.3-8h4.1l1.2-7.2h11.8l-1.1,7.2h6.7l-1.2,8h-6.7l-2.2,13.9c-0.5,3,0.7,4,3,4
		c0.9,0,2.2-0.2,3.3-0.6l-1.4,8.9c-1.4,0.6-3.5,1.1-6.1,1.1C413.9,50.7,409.8,46.8,411.2,37.7z"/>
	<path fill="#FFFFFF" d="M433,41.1c0-9,7-12.1,18.1-12.1h5.1l0.1-0.9c0.5-3.2-0.2-5.3-4-5.3c-3.2,0-4.5,1.8-5,4.1h-11.1
		c1.7-8.4,7.8-12.4,16.6-12.4c11.1,0,16.5,4.8,14.9,15.1l-1.5,9.6c-0.7,4.5-0.9,7.8-0.5,10.7h-11.4c-0.3-1.4-0.3-2.9-0.2-4.3
		c-2.1,2.8-5.1,5.1-10.2,5.1C437.7,50.7,433,47.2,433,41.1z M454.8,37.8l0.3-2.1h-3.7c-4.7,0-6.7,1-6.7,3.8c0,1.8,1.3,3.2,3.9,3.2
		C451.8,42.8,454.3,40.8,454.8,37.8z"/>
</g>
<g>
	<path fill="#FFFFFF" d="M518.2,29.7h-32.7v-5.9h21.3l0.2-1.4h-18.3v-5.6h18.6v-1.6h-20v-6h28.4v2.3c0,2-0.1,4.2-0.2,6.6
		c-0.1,2.4-0.4,4.3-0.8,5.9h3.5V29.7z M487.6,31.1h28.3v12.1h-20.6v1.3h21.4v5.2h-24.5c-1.6,0-2.7-0.3-3.3-0.8
		c-0.9-0.7-1.3-2.2-1.3-4.3v-6.8h20.5v-1.5h-20.5V31.1z"/>
	<path fill="#FFFFFF" d="M546.9,9.6v13.5h-10.6v2h12.5v6.1h-15.2c-2.8,0-4.5-0.4-5.1-1.1c-0.6-0.7-1-2.4-1-5.1v-8h10.6v-1.3h-10.6
		V9.6H546.9z M533.7,49.7c-1.7,0-2.9-0.3-3.5-0.8c-0.9-0.7-1.3-2.2-1.3-4.4v-11h8.8v2.5h11.7v-2.5h8.8v16.2H533.7z M537.7,43.6h11.7
		v-1.5h-11.7V43.6z M547.6,19.9V13h1.7V9.3h8.8v22.4h-8.8V19.9H547.6z"/>
</g>
</svg>
