<?xml version="1.0" encoding="utf-8"?>
<!-- Generator: Adobe Illustrator 18.0.0, SVG Export Plug-In . SVG Version: 6.00 Build 0)  -->
<!DOCTYPE svg PUBLIC "-//W3C//DTD SVG 1.1//EN" "http://www.w3.org/Graphics/SVG/1.1/DTD/svg11.dtd">
<svg version="1.1" id="Layer_1" xmlns="http://www.w3.org/2000/svg" xmlns:xlink="http://www.w3.org/1999/xlink" x="0px" y="0px"
	 viewBox="0 0 1280 800" enable-background="new 0 0 1280 800" xml:space="preserve">
<g>
	<path fill="#FFFFFF" d="M222.3,405.5h19c0.2,4.8,3.1,9.2,11.1,9.2c6.1,0.1,9.3-2.6,9.3-7.2c0-3.4-2.5-5.2-9.9-6.8
		c-17.1-3.6-23.3-9.2-23.3-20.9c0-13.2,10.3-23.3,28.3-23.3c16.6,0,26.8,6.9,26.7,22h-18.4c-0.4-5.3-3.5-7.6-8.9-7.6
		c-5.5,0-8.2,2.6-8.2,6.4c0,3.2,2.2,4.7,9.9,6.4c15.9,3.4,23.6,8.8,23.6,20.9c0,14.4-10.3,24.4-29.5,24.5
		C232.8,429,222.2,420.2,222.3,405.5z"/>
	<path fill="#FFFFFF" d="M287.6,405.5c-0.1-17.5,12.2-30.4,29.7-30.4c14,0,26.2,7.7,26.2,23.7c0,17.8-12.1,30.2-29.7,30.2
		C299.8,429,287.7,421.3,287.6,405.5z M325.8,398.1c0-5.6-2.8-9.9-8.8-9.9c-7.7,0-11.8,7.5-11.8,17.5c0,5.3,2.2,10.2,8.9,10.2
		C321.9,415.9,325.8,408.2,325.8,398.1z"/>
	<path fill="#FFFFFF" d="M340.2,433.2c4.4-0.2,6.6-1.9,7.2-5.8l8.1-51h17.6l-8.4,52.7c-1.5,9.9-7.5,17.7-26.4,16.8L340.2,433.2z
		 M356.7,362.4c0-5.1,4-9.1,9.5-9.1c5.4,0,9.5,3.8,9.5,9c0,5.2-4.1,9.1-9.5,9.1C360.6,371.3,356.7,367.6,356.7,362.4z"/>
	<path fill="#FFFFFF" d="M429,411.8c-1.1,6.8-1.5,11.7-1.3,16h-17.2c-0.2-2.4-0.2-4.8,0.1-7.8c-3.8,5.2-8.6,9-16.3,9
		c-10.8,0-18-6.3-15.6-21.7l4.9-31h17.6l-4.8,30.7c-0.9,5.7,1,8.9,5.6,8.9c5.5,0,9.2-3.4,10.2-10.2l4.6-29.3h17.6L429,411.8z"/>
</g>
<g>
	<path fill="#FFFFFF" d="M462,356.4h25.5l7.6,37.3l19.4-37.3h26.6L530,426.8h-20.1l7-44.1l-24.2,44.1H486l-10-44.1l-7,44.1h-18
		L462,356.4z"/>
	<path fill="#FFFFFF" d="M541.1,413.7c0-13.5,10.4-18,27.1-18h7.6l0.2-1.4c0.8-4.8-0.3-8-5.9-8c-4.7,0-6.7,2.8-7.5,6.1H546
		c2.6-12.6,11.7-18.5,24.8-18.5c16.5,0,24.7,7.2,22.3,22.5l-2.3,14.3c-1.1,6.7-1.4,11.7-0.8,16h-17c-0.4-2.2-0.4-4.3-0.3-6.4
		c-3.2,4.1-7.7,7.6-15.3,7.6C548.1,428,541.1,422.8,541.1,413.7z M573.7,408.8l0.5-3.2h-5.5c-7.1,0-10,1.5-10,5.7
		c0,2.7,2,4.8,5.8,4.8C569.3,416.2,573,413.3,573.7,408.8z"/>
	<path fill="#FFFFFF" d="M603.8,392.2c1.2-7.4,1.7-12.2,1.8-16.8h17.2c0,2.6-0.2,6.8-0.7,10.9c4.1-8.1,9.7-11.7,18.7-11.6l-2.6,16.4
		c-10.8-0.4-17,2.9-18.6,13l-3.6,22.7h-17.6L603.8,392.2z"/>
	<path fill="#FFFFFF" d="M693.7,423.9c-2.4,14.9-10.1,22.1-28.2,22.1c-19,0-26.5-8.9-27.1-19.1H656c0.5,3.3,2.9,6.7,9.1,6.7
		c7.6,0,10.1-4.1,11-9.7l1.2-7.4c-3.3,5.2-8.4,7.9-15.5,7.9c-11.4,0-19.7-7.5-19.7-21.7c0-16.8,10.4-28.7,25.1-28.7
		c8,0,12.9,3.2,15.4,8.5l1.2-7.1h17.6L693.7,423.9z M680.5,396.4c0-5.6-3.3-9.5-8.8-9.5c-7.6,0-11.4,7.2-11.4,14.5
		c0,5.9,2.7,10,8.2,10C675.9,411.5,680.5,405.1,680.5,396.4z"/>
	<path fill="#FFFFFF" d="M703.3,413.7c0-13.5,10.4-18,27.1-18h7.6l0.2-1.4c0.8-4.8-0.3-8-5.9-8c-4.7,0-6.7,2.8-7.5,6.1h-16.5
		c2.6-12.6,11.7-18.5,24.8-18.5c16.5,0,24.7,7.2,22.3,22.5l-2.3,14.3c-1.1,6.7-1.4,11.7-0.8,16h-17c-0.4-2.2-0.4-4.3-0.3-6.4
		c-3.2,4.1-7.7,7.6-15.3,7.6C710.3,428,703.3,422.8,703.3,413.7z M735.9,408.8l0.5-3.2h-5.5c-7.1,0-10,1.5-10,5.7
		c0,2.7,2,4.8,5.8,4.8C731.4,416.2,735.2,413.3,735.9,408.8z"/>
	<path fill="#FFFFFF" d="M766,392.2c1.2-7.4,1.7-12.2,1.8-16.8H785c0,2.6-0.2,6.8-0.7,10.9c4.1-8.1,9.7-11.7,18.7-11.6l-2.6,16.4
		c-10.8-0.4-17,2.9-18.6,13l-3.6,22.7h-17.6L766,392.2z"/>
	<path fill="#FFFFFF" d="M811.5,375.3H829l-8.1,51.5h-17.6L811.5,375.3z M812.8,361.4c0-5.1,4-9.1,9.5-9.1c5.4,0,9.5,3.8,9.5,9
		c0,5.2-4.1,9.1-9.5,9.1C816.7,370.3,812.8,366.6,812.8,361.4z"/>
	<path fill="#FFFFFF" d="M836.9,408.6l3.3-21.3H834l1.9-12h6.2l1.8-10.7h17.6l-1.7,10.7h9.9l-1.8,12h-10l-3.3,20.8
		c-0.7,4.4,1,5.9,4.5,5.9c1.4,0,3.2-0.3,4.9-0.9l-2.1,13.3c-2.2,0.9-5.2,1.6-9.2,1.6C840.8,428,834.7,422.2,836.9,408.6z"/>
	<path fill="#FFFFFF" d="M869.4,413.7c0-13.5,10.4-18,27.1-18h7.6l0.2-1.4c0.8-4.8-0.3-8-5.9-8c-4.7,0-6.7,2.8-7.5,6.1h-16.5
		c2.6-12.6,11.7-18.5,24.8-18.5c16.5,0,24.7,7.2,22.3,22.5l-2.3,14.3c-1.1,6.7-1.4,11.7-0.8,16h-17c-0.4-2.2-0.4-4.3-0.3-6.4
		c-3.2,4.1-7.7,7.6-15.3,7.6C876.4,428,869.4,422.8,869.4,413.7z M902,408.8l0.5-3.2H897c-7.1,0-10,1.5-10,5.7c0,2.7,2,4.8,5.8,4.8
		C897.5,416.2,901.3,413.3,902,408.8z"/>
</g>
<g>
	<path fill="#FFFFFF" d="M996.8,396.7h-48.9v-8.9h31.8l0.3-2.1h-27.3v-8.4h27.8v-2.3h-29.9v-9h42.5v3.4c0,3-0.1,6.3-0.3,9.9
		c-0.2,3.5-0.6,6.5-1.2,8.8h5.2V396.7z M951,398.7h42.3v18h-30.8v2h32v7.8h-36.7c-2.4,0-4-0.4-4.9-1.1c-1.3-1.1-1.9-3.2-1.9-6.5
		v-10.1h30.7v-2.2H951V398.7z"/>
	<path fill="#FFFFFF" d="M1039.7,366.7v20.2h-15.9v3h18.7v9.1h-22.7c-4.2,0-6.7-0.5-7.7-1.6c-1-1.1-1.4-3.6-1.4-7.6v-11.9h15.9v-2
		h-15.9v-9.2H1039.7z M1019.9,426.6c-2.5,0-4.3-0.4-5.2-1.2c-1.3-1.1-2-3.3-2-6.6v-16.5h13.1v3.7h17.4v-3.7h13.2v24.3H1019.9z
		 M1025.8,417.4h17.4v-2.3h-17.4V417.4z M1040.7,382v-10.3h2.6v-5.5h13.2v33.4h-13.2V382H1040.7z"/>
</g>
</svg>
