<svg version="1.1" id="Layer_1" xmlns="http://www.w3.org/2000/svg" xmlns:xlink="http://www.w3.org/1999/xlink" x="0px" y="0px"
	 width="auto" height="auto" viewBox="0 0 495.507 280.96" enable-background="new 0 0 495.507 280.96"
	 xml:space="preserve">
<path d="M51.491,247.527H0.003v-9.346h33.488l0.347-2.236H5.095v-8.787h29.302v-2.444H2.935v-9.491h44.719v3.631
	c0,3.21-0.117,6.675-0.35,10.396s-0.651,6.792-1.254,9.208h5.442L51.491,247.527L51.491,247.527z M3.352,249.619h44.51v18.975
	h-32.37v2.092h33.625v8.235H10.538c-2.509,0-4.231-0.394-5.163-1.188c-1.352-1.118-2.022-3.396-2.022-6.834V260.22h32.303v-2.299
	H3.353v-8.303L3.352,249.619L3.352,249.619z M96.66,215.926v21.205H79.914v3.21H99.59v9.629H75.66c-4.373,0-7.058-0.572-8.059-1.712
	c-0.999-1.139-1.498-3.803-1.498-7.986v-12.556h16.74v-2.092h-16.74v-9.698L96.66,215.926L96.66,215.926z M75.868,278.92
	c-2.651,0-4.488-0.414-5.508-1.257c-1.396-1.159-2.093-3.465-2.093-6.902v-17.374h13.812v3.907h18.349v-3.907h13.881v25.533H75.868z
	 M82.078,269.291h18.349v-2.367H82.078V269.291z M97.705,232.038v-10.879h2.722v-5.791h13.881v35.162h-13.881v-18.492H97.705z"/>
</svg>
